<svg width="241" height="98" viewBox="0 0 241 98" fill="none" xmlns="http://www.w3.org/2000/svg">
<path d="M123.232 53.54C120.568 53.54 118.264 53.072 116.32 52.136C114.4 51.176 112.924 49.808 111.892 48.032C110.86 46.256 110.344 44.144 110.344 41.696C110.344 39.128 110.884 36.86 111.964 34.892C113.068 32.924 114.604 31.4 116.572 30.32C118.564 29.24 120.856 28.7 123.448 28.7C124.936 28.7 126.34 28.868 127.66 29.204C129.004 29.54 130.192 30.02 131.224 30.644L129.964 34.964C129.028 34.388 127.984 33.944 126.832 33.632C125.68 33.296 124.552 33.128 123.448 33.128C121.864 33.128 120.46 33.476 119.236 34.172C118.036 34.844 117.1 35.804 116.428 37.052C115.78 38.276 115.456 39.704 115.456 41.336C115.456 43.736 116.176 45.632 117.616 47.024C119.08 48.392 121.072 49.076 123.592 49.076C124.6 49.076 125.536 49.004 126.4 48.86V43.892H123.376V39.68H131.188V52.136C128.716 53.072 126.064 53.54 123.232 53.54ZM138.549 26.72H144.345V31.4H138.549V26.72ZM135.741 48.644H139.197V38.816H135.741V34.46H144.273V48.644H147.369V53H135.741V48.644ZM157.55 53.54C155.822 53.54 154.478 53.108 153.518 52.244C152.582 51.356 152.114 50.108 152.114 48.5V38.816H149.234V34.46H152.114V30.5C153.818 30.212 155.498 29.996 157.154 29.852V34.46H161.834V38.816H157.154V47.564C157.154 48.068 157.298 48.452 157.586 48.716C157.898 48.98 158.33 49.112 158.882 49.112C159.554 49.112 160.322 48.956 161.186 48.644L162.302 52.46C160.766 53.18 159.182 53.54 157.55 53.54ZM166.618 29.024H171.874V38.312H182.062V29.024H187.354V53H182.062V42.776H171.874V53H166.618V29.024ZM198.904 53.504C196.936 53.504 195.388 52.904 194.26 51.704C193.132 50.504 192.568 48.86 192.568 46.772V34.46H197.644V45.944C197.644 46.928 197.884 47.696 198.364 48.248C198.844 48.776 199.492 49.04 200.308 49.04C201.124 49.04 201.904 48.776 202.648 48.248C203.416 47.72 204.052 47.012 204.556 46.124V34.46H209.632V53H204.556V50.552C203.86 51.488 203.056 52.22 202.144 52.748C201.256 53.252 200.176 53.504 198.904 53.504ZM221.642 53.54C219.722 53.54 217.454 53.252 214.838 52.676V26.72H219.842V36.26C221.258 34.724 222.998 33.956 225.062 33.956C227.174 33.956 228.83 34.76 230.03 36.368C231.23 37.952 231.83 40.172 231.83 43.028C231.83 46.436 230.954 49.04 229.202 50.84C227.45 52.64 224.93 53.54 221.642 53.54ZM222.182 49.112C223.67 49.112 224.798 48.62 225.566 47.636C226.358 46.652 226.754 45.212 226.754 43.316C226.754 41.756 226.49 40.544 225.962 39.68C225.458 38.816 224.738 38.384 223.802 38.384C223.034 38.384 222.314 38.66 221.642 39.212C220.97 39.74 220.37 40.52 219.842 41.552V48.788C220.586 49.004 221.366 49.112 222.182 49.112Z" fill="white"/>
<path d="M140.805 73.56L140.757 70.56C140.853 70.496 140.981 70.464 141.141 70.464C141.317 70.464 141.477 70.52 141.621 70.632L142.269 73.488C142.717 73.68 143.213 73.832 143.757 73.944C144.317 74.056 144.901 74.112 145.509 74.112C146.837 74.112 147.869 73.84 148.605 73.296C149.357 72.736 149.733 71.96 149.733 70.968C149.733 70.2 149.461 69.576 148.917 69.096C148.373 68.6 147.413 68.12 146.037 67.656C144.773 67.24 143.765 66.816 143.013 66.384C142.277 65.936 141.741 65.448 141.405 64.92C141.085 64.376 140.925 63.752 140.925 63.048C140.925 61.864 141.357 60.944 142.221 60.288C143.085 59.616 144.285 59.28 145.821 59.28C147.181 59.28 148.453 59.568 149.637 60.144C149.733 60.256 149.821 60.376 149.901 60.504C149.981 60.632 150.045 60.752 150.093 60.864L150.141 63.744C150.045 63.808 149.917 63.84 149.757 63.84C149.581 63.84 149.421 63.784 149.277 63.672L148.629 60.96C147.733 60.576 146.797 60.384 145.821 60.384C144.685 60.384 143.813 60.616 143.205 61.08C142.597 61.528 142.293 62.184 142.293 63.048C142.293 63.56 142.405 64 142.629 64.368C142.869 64.736 143.277 65.08 143.853 65.4C144.445 65.72 145.261 66.056 146.301 66.408C148.045 67.016 149.285 67.664 150.021 68.352C150.757 69.04 151.125 69.912 151.125 70.968C151.125 72.296 150.629 73.344 149.637 74.112C148.645 74.864 147.269 75.24 145.509 75.24C144.693 75.24 143.909 75.16 143.157 75C142.405 74.824 141.773 74.584 141.261 74.28C141.165 74.168 141.077 74.048 140.997 73.92C140.917 73.792 140.853 73.672 140.805 73.56ZM165.053 75H153.893C153.829 74.904 153.797 74.776 153.797 74.616C153.797 74.44 153.853 74.28 153.965 74.136L155.573 73.944V60.624H154.181C153.925 60.624 153.797 60.512 153.797 60.288C153.797 60.176 153.837 59.984 153.917 59.712L153.965 59.52H164.813C165.037 59.696 165.229 59.904 165.389 60.144L165.437 63.312C165.341 63.376 165.213 63.408 165.053 63.408C164.877 63.408 164.717 63.352 164.573 63.24L163.973 60.624H156.917V66.552H161.717L161.933 65.28C161.981 64.992 162.117 64.848 162.341 64.848C162.405 64.848 162.533 64.888 162.725 64.968L162.869 65.04V69.264C162.773 69.328 162.645 69.36 162.485 69.36C162.309 69.36 162.149 69.304 162.005 69.192L161.717 67.632H156.917V73.896H164.213L164.813 71.28C164.957 71.168 165.117 71.112 165.293 71.112C165.453 71.112 165.581 71.144 165.677 71.208L165.629 74.376C165.469 74.616 165.277 74.824 165.053 75ZM183.022 75H178.342C178.278 74.904 178.246 74.776 178.246 74.616C178.246 74.44 178.302 74.28 178.414 74.136L180.022 73.944L178.486 69.96H171.958L170.47 73.896H171.862C172.118 73.896 172.246 74.008 172.246 74.232C172.246 74.344 172.206 74.536 172.126 74.808L172.078 75H167.47C167.406 74.904 167.374 74.776 167.374 74.616C167.374 74.44 167.43 74.28 167.542 74.136L169.15 73.944L174.766 59.472C174.926 59.44 175.102 59.424 175.294 59.424C175.486 59.424 175.662 59.44 175.822 59.472L181.414 73.896H182.806C183.062 73.896 183.19 74.008 183.19 74.232C183.19 74.344 183.15 74.536 183.07 74.808L183.022 75ZM178.078 68.88L175.222 61.344L172.366 68.88H178.078ZM194.035 73.032L191.395 68.448H188.059V73.896H189.451C189.707 73.896 189.835 74.008 189.835 74.232C189.835 74.344 189.795 74.536 189.715 74.808L189.667 75H185.035C184.971 74.904 184.939 74.776 184.939 74.616C184.939 74.44 184.995 74.28 185.107 74.136L186.715 73.944V60.624H185.323C185.067 60.624 184.939 60.512 184.939 60.288C184.939 60.176 184.979 59.984 185.059 59.712L185.107 59.52H191.419C192.315 59.52 193.075 59.664 193.699 59.952C194.323 60.224 194.827 60.592 195.211 61.056C195.595 61.504 195.875 61.992 196.051 62.52C196.227 63.032 196.315 63.52 196.315 63.984C196.315 64.528 196.195 65.104 195.955 65.712C195.731 66.304 195.355 66.84 194.827 67.32C194.299 67.8 193.611 68.128 192.763 68.304L195.403 72.696C195.707 73.208 195.979 73.552 196.219 73.728C196.459 73.888 196.779 73.968 197.179 73.968C197.307 73.968 197.443 73.968 197.587 73.968C197.747 73.952 197.883 73.936 197.995 73.92C198.123 74.144 198.195 74.44 198.211 74.808C197.667 75 197.155 75.096 196.675 75.096C196.163 75.096 195.699 74.936 195.283 74.616C194.867 74.28 194.451 73.752 194.035 73.032ZM188.059 67.344H191.419C192.491 67.344 193.339 67.024 193.963 66.384C194.587 65.728 194.899 64.928 194.899 63.984C194.899 63.04 194.587 62.248 193.963 61.608C193.339 60.952 192.491 60.624 191.419 60.624H188.059V67.344ZM210.561 63.96L209.889 61.032C208.849 60.616 207.833 60.408 206.841 60.408C205.689 60.408 204.681 60.696 203.817 61.272C202.953 61.832 202.281 62.624 201.801 63.648C201.337 64.672 201.105 65.872 201.105 67.248C201.105 68.64 201.345 69.84 201.825 70.848C202.321 71.856 203.017 72.64 203.913 73.2C204.825 73.744 205.897 74.016 207.129 74.016C208.553 74.016 209.921 73.68 211.233 73.008C211.457 73.28 211.609 73.6 211.689 73.968C211.097 74.352 210.369 74.664 209.505 74.904C208.641 75.128 207.777 75.24 206.913 75.24C205.457 75.24 204.185 74.912 203.097 74.256C202.025 73.6 201.185 72.672 200.577 71.472C199.985 70.272 199.689 68.864 199.689 67.248C199.689 65.648 199.977 64.256 200.553 63.072C201.145 61.872 201.969 60.944 203.025 60.288C204.097 59.616 205.337 59.28 206.745 59.28C207.401 59.28 208.097 59.36 208.833 59.52C209.585 59.68 210.281 59.904 210.921 60.192C211.017 60.304 211.105 60.424 211.185 60.552C211.265 60.68 211.329 60.8 211.377 60.912L211.425 64.032C211.329 64.096 211.201 64.128 211.041 64.128C210.865 64.128 210.705 64.072 210.561 63.96ZM229.06 75H224.428C224.364 74.904 224.332 74.776 224.332 74.616C224.332 74.44 224.388 74.28 224.5 74.136L226.108 73.944V67.608H217.42V73.896H218.812C219.068 73.896 219.196 74.008 219.196 74.232C219.196 74.344 219.156 74.536 219.076 74.808L219.028 75H214.396C214.332 74.904 214.3 74.776 214.3 74.616C214.3 74.44 214.356 74.28 214.468 74.136L216.076 73.944V60.624H214.684C214.428 60.624 214.3 60.512 214.3 60.288C214.3 60.176 214.34 59.984 214.42 59.712L214.468 59.52H219.1C219.164 59.616 219.196 59.744 219.196 59.904C219.196 60.08 219.14 60.24 219.028 60.384L217.42 60.576V66.504H226.108V60.624H224.716C224.46 60.624 224.332 60.512 224.332 60.288C224.332 60.176 224.372 59.984 224.452 59.712L224.5 59.52H229.132C229.196 59.616 229.228 59.744 229.228 59.904C229.228 60.08 229.172 60.24 229.06 60.384L227.452 60.576V73.896H228.844C229.1 73.896 229.228 74.008 229.228 74.232C229.228 74.344 229.188 74.536 229.108 74.808L229.06 75Z" fill="url(#paint0_linear)"/>
<path d="M50.5 0C22.6156 0 0 22.4944 0 50.2387C0 72.4359 14.4682 91.267 34.5378 97.9111C37.0586 98.3758 37.875 96.8184 37.875 95.4955V86.1427C23.8276 89.1821 20.9028 80.2145 20.9028 80.2145C18.605 74.4078 15.2931 72.8629 15.2931 72.8629C10.7102 69.7439 15.6424 69.8109 15.6424 69.8109C20.7134 70.1626 23.3815 74.9897 23.3815 74.9897C27.8844 82.6678 35.1943 80.449 38.077 79.1637C38.5273 75.9191 39.8361 73.7002 41.2838 72.4484C30.0685 71.1715 18.2768 66.8636 18.2768 47.618C18.2768 42.1294 20.2505 37.6497 23.4783 34.133C22.9565 32.8645 21.2268 27.7527 23.9707 20.8365C23.9707 20.8365 28.2127 19.4884 37.8624 25.986C41.8898 24.8724 46.2075 24.3155 50.5 24.2946C54.7925 24.3155 59.1145 24.8724 63.1502 25.986C72.7915 19.4884 77.0251 20.8365 77.0251 20.8365C79.7732 27.7569 78.0435 32.8687 77.5217 34.133C80.7621 37.6497 82.719 42.1336 82.719 47.618C82.719 66.9138 70.9062 71.1632 59.6615 72.4066C61.4711 73.964 63.125 77.0202 63.125 81.7091V95.4955C63.125 96.831 63.933 98.4009 66.4959 97.9069C86.5486 91.2545 101 72.4275 101 50.2387C101 22.4944 78.3886 0 50.5 0Z" fill="url(#paint1_linear)"/>
<defs>
<linearGradient id="paint0_linear" x1="185" y1="53" x2="185" y2="82" gradientUnits="userSpaceOnUse">
<stop stop-color="#9651D0"/>
<stop offset="1" stop-color="#CC93FC"/>
</linearGradient>
<linearGradient id="paint1_linear" x1="50.5" y1="0" x2="50.5" y2="98" gradientUnits="userSpaceOnUse">
<stop stop-color="#9651D0"/>
<stop offset="1" stop-color="#CC93FC"/>
</linearGradient>
</defs>
</svg>
