<svg width="211" height="207" viewBox="0 0 211 207" fill="none" xmlns="http://www.w3.org/2000/svg">
<path d="M105.5 0C69.8853 0 41 28.8799 41 64.5C41 92.9983 59.4792 117.175 85.1126 125.705C88.3322 126.302 89.375 124.302 89.375 122.604V110.596C71.4333 114.498 67.6976 102.985 67.6976 102.985C64.7629 95.5299 60.5328 93.5465 60.5328 93.5465C54.6794 89.5421 60.9789 89.6281 60.9789 89.6281C67.4557 90.0796 70.8635 96.277 70.8635 96.277C76.6147 106.135 85.9511 103.286 89.633 101.636C90.2081 97.4703 91.8798 94.6215 93.7288 93.0144C79.4044 91.375 64.3436 85.8441 64.3436 61.1352C64.3436 54.0886 66.8645 48.3374 70.9871 43.8224C70.3206 42.1937 68.1115 35.6309 71.616 26.7514C71.616 26.7514 77.034 25.0206 89.3589 33.3626C94.5028 31.9329 100.018 31.218 105.5 31.1911C110.982 31.218 116.503 31.9329 121.657 33.3626C133.971 25.0206 139.379 26.7514 139.379 26.7514C142.888 35.6362 140.679 42.1991 140.013 43.8224C144.152 48.3374 146.651 54.094 146.651 61.1352C146.651 85.9086 131.563 91.3643 117.201 92.9606C119.513 94.9601 121.625 98.8839 121.625 104.904V122.604C121.625 124.318 122.657 126.334 125.93 125.7C151.542 117.159 170 92.9875 170 64.5C170 28.8799 141.12 0 105.5 0Z" fill="url(#paint0_linear)"/>
<path d="M41.8096 178.72C38.2576 178.72 35.1856 178.096 32.5936 176.848C30.0336 175.568 28.0656 173.744 26.6896 171.376C25.3136 169.008 24.6256 166.192 24.6256 162.928C24.6256 159.504 25.3456 156.48 26.7856 153.856C28.2576 151.232 30.3056 149.2 32.9296 147.76C35.5856 146.32 38.6416 145.6 42.0976 145.6C44.0816 145.6 45.9536 145.824 47.7136 146.272C49.5056 146.72 51.0896 147.36 52.4656 148.192L50.7856 153.952C49.5376 153.184 48.1456 152.592 46.6096 152.176C45.0736 151.728 43.5696 151.504 42.0976 151.504C39.9856 151.504 38.1136 151.968 36.4816 152.896C34.8816 153.792 33.6336 155.072 32.7376 156.736C31.8736 158.368 31.4416 160.272 31.4416 162.448C31.4416 165.648 32.4016 168.176 34.3216 170.032C36.2736 171.856 38.9296 172.768 42.2896 172.768C43.6336 172.768 44.8816 172.672 46.0336 172.48V165.856H42.0016V160.24H52.4176V176.848C49.1216 178.096 45.5856 178.72 41.8096 178.72ZM62.2325 142.96H69.9605V149.2H62.2325V142.96ZM58.4885 172.192H63.0965V159.088H58.4885V153.28H69.8645V172.192H73.9925V178H58.4885V172.192ZM87.5664 178.72C85.2624 178.72 83.4704 178.144 82.1904 176.992C80.9424 175.808 80.3184 174.144 80.3184 172V159.088H76.4784V153.28H80.3184V148C82.5904 147.616 84.8304 147.328 87.0384 147.136V153.28H93.2784V159.088H87.0384V170.752C87.0384 171.424 87.2304 171.936 87.6144 172.288C88.0304 172.64 88.6064 172.816 89.3424 172.816C90.2384 172.816 91.2624 172.608 92.4144 172.192L93.9024 177.28C91.8544 178.24 89.7424 178.72 87.5664 178.72ZM99.6575 146.032H106.666V158.416H120.25V146.032H127.306V178H120.25V164.368H106.666V178H99.6575V146.032ZM142.705 178.672C140.081 178.672 138.017 177.872 136.513 176.272C135.009 174.672 134.257 172.48 134.257 169.696V153.28H141.025V168.592C141.025 169.904 141.345 170.928 141.985 171.664C142.625 172.368 143.489 172.72 144.577 172.72C145.665 172.72 146.705 172.368 147.697 171.664C148.721 170.96 149.569 170.016 150.241 168.832V153.28H157.009V178H150.241V174.736C149.313 175.984 148.241 176.96 147.025 177.664C145.841 178.336 144.401 178.672 142.705 178.672ZM173.023 178.72C170.463 178.72 167.439 178.336 163.951 177.568V142.96H170.623V155.68C172.511 153.632 174.831 152.608 177.583 152.608C180.399 152.608 182.607 153.68 184.207 155.824C185.807 157.936 186.607 160.896 186.607 164.704C186.607 169.248 185.439 172.72 183.103 175.12C180.767 177.52 177.407 178.72 173.023 178.72ZM173.743 172.816C175.727 172.816 177.231 172.16 178.255 170.848C179.311 169.536 179.839 167.616 179.839 165.088C179.839 163.008 179.487 161.392 178.783 160.24C178.111 159.088 177.151 158.512 175.903 158.512C174.879 158.512 173.919 158.88 173.023 159.616C172.127 160.32 171.327 161.36 170.623 162.736V172.384C171.615 172.672 172.655 172.816 173.743 172.816Z" fill="white"/>
<path d="M61.305 198.56L61.257 195.56C61.353 195.496 61.481 195.464 61.641 195.464C61.817 195.464 61.977 195.52 62.121 195.632L62.769 198.488C63.217 198.68 63.713 198.832 64.257 198.944C64.817 199.056 65.401 199.112 66.009 199.112C67.337 199.112 68.369 198.84 69.105 198.296C69.857 197.736 70.233 196.96 70.233 195.968C70.233 195.2 69.961 194.576 69.417 194.096C68.873 193.6 67.913 193.12 66.537 192.656C65.273 192.24 64.265 191.816 63.513 191.384C62.777 190.936 62.241 190.448 61.905 189.92C61.585 189.376 61.425 188.752 61.425 188.048C61.425 186.864 61.857 185.944 62.721 185.288C63.585 184.616 64.785 184.28 66.321 184.28C67.681 184.28 68.953 184.568 70.137 185.144C70.233 185.256 70.321 185.376 70.401 185.504C70.481 185.632 70.545 185.752 70.593 185.864L70.641 188.744C70.545 188.808 70.417 188.84 70.257 188.84C70.081 188.84 69.921 188.784 69.777 188.672L69.129 185.96C68.233 185.576 67.297 185.384 66.321 185.384C65.185 185.384 64.313 185.616 63.705 186.08C63.097 186.528 62.793 187.184 62.793 188.048C62.793 188.56 62.905 189 63.129 189.368C63.369 189.736 63.777 190.08 64.353 190.4C64.945 190.72 65.761 191.056 66.801 191.408C68.545 192.016 69.785 192.664 70.521 193.352C71.257 194.04 71.625 194.912 71.625 195.968C71.625 197.296 71.129 198.344 70.137 199.112C69.145 199.864 67.769 200.24 66.009 200.24C65.193 200.24 64.409 200.16 63.657 200C62.905 199.824 62.273 199.584 61.761 199.28C61.665 199.168 61.577 199.048 61.497 198.92C61.417 198.792 61.353 198.672 61.305 198.56ZM85.5533 200H74.3933C74.3293 199.904 74.2973 199.776 74.2973 199.616C74.2973 199.44 74.3533 199.28 74.4653 199.136L76.0733 198.944V185.624H74.6813C74.4253 185.624 74.2973 185.512 74.2973 185.288C74.2973 185.176 74.3373 184.984 74.4173 184.712L74.4653 184.52H85.3133C85.5373 184.696 85.7293 184.904 85.8893 185.144L85.9373 188.312C85.8413 188.376 85.7133 188.408 85.5533 188.408C85.3773 188.408 85.2173 188.352 85.0733 188.24L84.4733 185.624H77.4173V191.552H82.2173L82.4333 190.28C82.4813 189.992 82.6173 189.848 82.8413 189.848C82.9053 189.848 83.0333 189.888 83.2253 189.968L83.3693 190.04V194.264C83.2733 194.328 83.1453 194.36 82.9853 194.36C82.8093 194.36 82.6493 194.304 82.5053 194.192L82.2173 192.632H77.4173V198.896H84.7133L85.3133 196.28C85.4573 196.168 85.6173 196.112 85.7933 196.112C85.9533 196.112 86.0813 196.144 86.1773 196.208L86.1293 199.376C85.9693 199.616 85.7773 199.824 85.5533 200ZM103.522 200H98.8422C98.7782 199.904 98.7462 199.776 98.7462 199.616C98.7462 199.44 98.8022 199.28 98.9142 199.136L100.522 198.944L98.9862 194.96H92.4582L90.9702 198.896H92.3622C92.6182 198.896 92.7462 199.008 92.7462 199.232C92.7462 199.344 92.7062 199.536 92.6262 199.808L92.5782 200H87.9702C87.9062 199.904 87.8742 199.776 87.8742 199.616C87.8742 199.44 87.9302 199.28 88.0422 199.136L89.6502 198.944L95.2662 184.472C95.4262 184.44 95.6022 184.424 95.7942 184.424C95.9862 184.424 96.1622 184.44 96.3222 184.472L101.914 198.896H103.306C103.562 198.896 103.69 199.008 103.69 199.232C103.69 199.344 103.65 199.536 103.57 199.808L103.522 200ZM98.5782 193.88L95.7222 186.344L92.8662 193.88H98.5782ZM114.535 198.032L111.895 193.448H108.559V198.896H109.951C110.207 198.896 110.335 199.008 110.335 199.232C110.335 199.344 110.295 199.536 110.215 199.808L110.167 200H105.535C105.471 199.904 105.439 199.776 105.439 199.616C105.439 199.44 105.495 199.28 105.607 199.136L107.215 198.944V185.624H105.823C105.567 185.624 105.439 185.512 105.439 185.288C105.439 185.176 105.479 184.984 105.559 184.712L105.607 184.52H111.919C112.815 184.52 113.575 184.664 114.199 184.952C114.823 185.224 115.327 185.592 115.711 186.056C116.095 186.504 116.375 186.992 116.551 187.52C116.727 188.032 116.815 188.52 116.815 188.984C116.815 189.528 116.695 190.104 116.455 190.712C116.231 191.304 115.855 191.84 115.327 192.32C114.799 192.8 114.111 193.128 113.263 193.304L115.903 197.696C116.207 198.208 116.479 198.552 116.719 198.728C116.959 198.888 117.279 198.968 117.679 198.968C117.807 198.968 117.943 198.968 118.087 198.968C118.247 198.952 118.383 198.936 118.495 198.92C118.623 199.144 118.695 199.44 118.711 199.808C118.167 200 117.655 200.096 117.175 200.096C116.663 200.096 116.199 199.936 115.783 199.616C115.367 199.28 114.951 198.752 114.535 198.032ZM108.559 192.344H111.919C112.991 192.344 113.839 192.024 114.463 191.384C115.087 190.728 115.399 189.928 115.399 188.984C115.399 188.04 115.087 187.248 114.463 186.608C113.839 185.952 112.991 185.624 111.919 185.624H108.559V192.344ZM131.061 188.96L130.389 186.032C129.349 185.616 128.333 185.408 127.341 185.408C126.189 185.408 125.181 185.696 124.317 186.272C123.453 186.832 122.781 187.624 122.301 188.648C121.837 189.672 121.605 190.872 121.605 192.248C121.605 193.64 121.845 194.84 122.325 195.848C122.821 196.856 123.517 197.64 124.413 198.2C125.325 198.744 126.397 199.016 127.629 199.016C129.053 199.016 130.421 198.68 131.733 198.008C131.957 198.28 132.109 198.6 132.189 198.968C131.597 199.352 130.869 199.664 130.005 199.904C129.141 200.128 128.277 200.24 127.413 200.24C125.957 200.24 124.685 199.912 123.597 199.256C122.525 198.6 121.685 197.672 121.077 196.472C120.485 195.272 120.189 193.864 120.189 192.248C120.189 190.648 120.477 189.256 121.053 188.072C121.645 186.872 122.469 185.944 123.525 185.288C124.597 184.616 125.837 184.28 127.245 184.28C127.901 184.28 128.597 184.36 129.333 184.52C130.085 184.68 130.781 184.904 131.421 185.192C131.517 185.304 131.605 185.424 131.685 185.552C131.765 185.68 131.829 185.8 131.877 185.912L131.925 189.032C131.829 189.096 131.701 189.128 131.541 189.128C131.365 189.128 131.205 189.072 131.061 188.96ZM149.56 200H144.928C144.864 199.904 144.832 199.776 144.832 199.616C144.832 199.44 144.888 199.28 145 199.136L146.608 198.944V192.608H137.92V198.896H139.312C139.568 198.896 139.696 199.008 139.696 199.232C139.696 199.344 139.656 199.536 139.576 199.808L139.528 200H134.896C134.832 199.904 134.8 199.776 134.8 199.616C134.8 199.44 134.856 199.28 134.968 199.136L136.576 198.944V185.624H135.184C134.928 185.624 134.8 185.512 134.8 185.288C134.8 185.176 134.84 184.984 134.92 184.712L134.968 184.52H139.6C139.664 184.616 139.696 184.744 139.696 184.904C139.696 185.08 139.64 185.24 139.528 185.384L137.92 185.576V191.504H146.608V185.624H145.216C144.96 185.624 144.832 185.512 144.832 185.288C144.832 185.176 144.872 184.984 144.952 184.712L145 184.52H149.632C149.696 184.616 149.728 184.744 149.728 184.904C149.728 185.08 149.672 185.24 149.56 185.384L147.952 185.576V198.896H149.344C149.6 198.896 149.728 199.008 149.728 199.232C149.728 199.344 149.688 199.536 149.608 199.808L149.56 200Z" fill="url(#paint1_linear)"/>
<defs>
<linearGradient id="paint0_linear" x1="105.5" y1="0" x2="105.5" y2="125.819" gradientUnits="userSpaceOnUse">
<stop stop-color="#9651D0"/>
<stop offset="1" stop-color="#CC93FC"/>
</linearGradient>
<linearGradient id="paint1_linear" x1="57.0737" y1="192.754" x2="149.653" y2="192.754" gradientUnits="userSpaceOnUse">
<stop stop-color="#9651D0"/>
<stop offset="1" stop-color="#7200D1"/>
</linearGradient>
</defs>
</svg>
