<?xml version="1.0" encoding="UTF-8"?>
<svg xmlns="http://www.w3.org/2000/svg" xmlns:xlink="http://www.w3.org/1999/xlink" viewBox="0 0 48 48" width="48px" height="48px">
<g id="surface68919828">
<path style=" stroke:none;fill-rule:nonzero;fill:rgb(60.784316%,34.901962%,71.372551%);fill-opacity:1;" d="M 43.101562 13.921875 C 42.71875 11.808594 40.898438 10.269531 38.78125 9.792969 C 35.617188 9.121094 29.761719 8.640625 23.421875 8.640625 C 17.089844 8.640625 11.136719 9.121094 7.96875 9.792969 C 5.859375 10.269531 4.03125 11.710938 3.648438 13.921875 C 3.261719 16.320312 2.878906 19.679688 2.878906 24 C 2.878906 28.320312 3.261719 31.679688 3.742188 34.078125 C 4.128906 36.191406 5.953125 37.730469 8.0625 38.207031 C 11.421875 38.878906 17.183594 39.359375 23.519531 39.359375 C 29.859375 39.359375 35.617188 38.878906 38.976562 38.207031 C 41.089844 37.730469 42.910156 36.289062 43.296875 34.078125 C 43.679688 31.679688 44.160156 28.222656 44.257812 24 C 44.0625 19.679688 43.582031 16.320312 43.101562 13.921875 Z M 18.238281 30.71875 L 18.238281 17.28125 L 29.953125 24 Z M 18.238281 30.71875 "/>
</g>
</svg>
